<?xml version="1.0" encoding="utf-8"?>
<!-- Generator: Adobe Illustrator 17.1.0, SVG Export Plug-In . SVG Version: 6.00 Build 0)  -->
<!DOCTYPE svg PUBLIC "-//W3C//DTD SVG 1.1//EN" "http://www.w3.org/Graphics/SVG/1.1/DTD/svg11.dtd">
<svg version="1.1" id="Layer_1" xmlns="http://www.w3.org/2000/svg" xmlns:xlink="http://www.w3.org/1999/xlink" x="0px" y="0px"
	 viewBox="0 0 800 400" enable-background="new 0 0 800 400" xml:space="preserve">
<g>
	<path fill="#E74C3C" d="M401.3,300c0,55.2-44.8,100-100,100h-200c-55.2,0-100-44.8-100-100V100C1.3,44.8,46,0,101.3,0h200
		c55.2,0,100,44.8,100,100L401.3,300L401.3,300z M334.6,100c0-18.4-14.9-33.3-33.3-33.3h-200c-18.4,0-33.3,14.9-33.3,33.3v200
		c0,18.4,14.9,33.3,33.3,33.3h200c18.4,0,33.3-14.9,33.3-33.3V100z"/>
	<path fill="#E74C3C" d="M658.2,374.6c-32.2,32.1-84.3,32.1-116.4,0L425.4,258.2c-32.2-32.1-32.2-84.3,0-116.4L541.8,25.4
		c32.2-32.1,84.3-32.1,116.4,0l116.4,116.4c32.2,32.2,32.2,84.3,0,116.4L658.2,374.6z M735.8,219.4c10.7-10.7,10.7-28.1,0-38.8
		L619.4,64.2c-10.7-10.7-28.1-10.7-38.8,0L464.2,180.6c-10.7,10.7-10.7,28.1,0,38.8l116.4,116.4c10.7,10.7,28.1,10.7,38.8,0
		L735.8,219.4z"/>
</g>
</svg>
